<svg xmlns="http://www.w3.org/2000/svg" width="297.474" height="299" viewBox="1.263 0.5 297.474 299">
    <path fill="#fff" d="M298.736 150c0 82.567-66.592 149.5-148.736 149.5S1.263 232.568 1.263 150 67.855.5 150 .5 298.736 67.434 298.736 150z"/>
    <path fill="#007042" d="M148.758 53.65c5.236 3.018 10.8 6.902 15.018 11.018l-1.66 1.67c-8.343-.887-17.13.22-25.04.342-.882-.9-2.66-2.228-1.004-3.346l12.686-9.683zm147.52 103.637c.11 3.766.465 7-1.004 10.854-15.242 4.335-25.254-11.803-40.043-9.37l1.672 8.365c13.682.45 22.228 13.57 36.363 13.006-2.008 4.01.896 14.578-8 10.354-9.235-2.22-15.912-10.354-26.032-10.354-1.22 2.242-.448 5.346-.662 7.998 10.676 1.675 18.354 10.698 29.027 12.364-1.004 3.668-2 7.775-5.005 10.012-8.683-2.113-15.465-9.91-24.71-9.688l-1.646 7.68c8.785.226 14.46 7.998 22.356 10.33.217 3.24-2.68 6.135-4.347 9.027-7.01-2.105-12.354-8.126-20.362-7.682-.11-3.017 1.68-6.443 1.004-9.67-8.994 2.675-15.025-5.682-21.69-10.695-.192-16.405-17.462-27.167-18.374-42.535-.175-3.064.292-6.335 1.688-9.85 5.676-13.124 3.893-30.163-2.33-42.4-1.89-3.22-5.242-5.762-8.365-7.655 4.57 9.683 10.137 21.124 7.358 33.026-.322 9.19-5.745 18.018-5.807 26.878-.02 3.16.653 6.318 2.47 9.508 7.236 13.032 20.254 25.368 15.36 41.712-1.346 5.02-5.354 8.902-6.354 14.01 8.465 7.01 16.47 14.91 27.7 15.356 4.002-2.556 1.78-13.89 10.012-8.663l12.02 6.013c-.876 3.218-3.57 6.102-6 8.318-4.56-2.22-9-4.88-14.697-4.664-1.677 1.78-3.12 3.776-2.992 6.33 4.002.66 7.673 2.348 11.016 4.688-1.552 3.343-4.577 5.438-7.358 7.998l-9.325-3.334c-1.557 2.228-4.79 4.57-3.656 7.014 2.104.9 4.438 2.12 5.987 3.68-4.116 4.45-9.333 7.31-14.353 10.33-4.324-14.133-18.57-24.042-17.348-40.386l-.662-.66c-3.35 3.765-2.23 9.786-2.014 14.672 4.008 10.237 13.568 18.144 15.018 29.37-1.674 2.89-5.448 3.465-8.343 4.688.336-20.24-30.365-35.59-10.677-56.064 6.566-10.025 17.567-19.592 13.67-33.394-4.002-13.326-18.157-21.583-18.032-36.522l.022-1.165c3.224-15.58 13.018-32.156 5.006-48.73-2.233-6.666-7.222-14.24-14.008-17.027 10.117 11.58 14.128 30.474 8.34 46.056-2.917 6.198-6.933 13.582-7.336 20.868h-.024c-.215 3.805.562 7.59 3.017 11.177 7.682 12.464 21.024 26.155 13.35 42.398-8.676 13-23.805 26.244-15.356 43.38 6.118 10.234 15.582 20.446 13.03 33.027l-10.012 3.334c6.675-23.466-26.035-37.254-12.342-60.728 8.454-12.57 23.574-24.364 15.015-41.047-5.117-10.337-15.7-16.455-15.356-29.373l.364-2.17c3.445-18.32 17.372-35.663 7.634-55.24-2.56-5.78-7.673-11.675-13.35-15.015l-.343.343c11.353 11.013 14.807 29.133 8.686 43.7-2.856 8.546-9.124 17.06-10.398 26.217-.606 4.318-.095 8.793 2.4 13.507 7.23 11.45 19.91 23.594 11.997 38.396-8.332 12.226-22.242 24.122-16.686 40.02 6.12 13.9 18.9 27.16 12 44.41l-10.33 2.333c8.23-16.81-4.1-33.488-11.338-48.066-8.793-20.915 18.892-30.93 19.336-50.052-.105-12.342-13.226-19.35-16-30.696-5.68-4.79-11.565 1.905-18.354.662-5.012 1.007-12.7-6.9-15.702 1.67-3.563 12.564-19.795 21.8-12.66 36.703 6.788 13.243 23.124 22.927 17.667 40.065-4.886 16.008-21.026 31.25-11.016 49.713-4.112-1.332-11.79 1.218-11.68-5.35-6.338-22.36 20.7-35.385 12.342-57.732-3.885-13.688-21.586-21.25-17.69-37.713 2.88-13.552 18.088-23.026 15.955-37.87-.173-1.243-.48-2.515-.916-3.84-5.676-16.02-17.256-32.042-10.354-50.738 1.895-5.34 5.68-9.9 9.006-14.673-11.014 5.894-16.57 18.357-16.342 31.036-.48 13.788 9.705 25.6 11.154 38.216.57 5.092-.264 10.306-3.818 15.837-7.225 9.804-16.674 20.14-12.342 33.05 4.12 13.02 20.36 20.91 19.358 36.044-.1 17.903-20.913 29.05-15.017 49.072l-10.354-3.36c-4.11-17.792 14.797-26.895 15.014-43.357 2.676-18.93-21.47-25.955-20.02-44.41-.104-14.02 12.238-22.9 17.69-34.695.935-2.87 1.246-5.582 1.12-8.182-.668-13.04-12.418-23.235-10.468-37.896.656-10.8 4.327-20.248 11.338-28.363-9.673 3.886-13.67 15.02-16.34 24.367-4.637 14.986 6.432 28.466 7.542 41.893.492 5.93-.957 11.824-6.536 17.85-8.014 9.444-16.14 21.36-10.355 34.053 6.127 14.005 25.376 24.906 17.027 42.374-4.555 11.015-15.462 19.353-15.014 32.364-2.9-1.224-5.888-2.444-8.344-4.663 0-16.572 23.574-26.923 12.342-44.388-.995 3.446-1.21 8.13-1.988 12.022C84.462 257.034 76.122 265.14 73 275.61c-5.22-2.014-10.676-6.246-15.017-10.695l6.013-3.68c-.668-2.23-2.445-4.118-4-6.01-3.905-.55-6.47 2.013-9.688 3.017-2.78-2.452-5.465-4.678-7.682-7.68 1.996-5.685 17.592-.984 9.69-10.33-5.334-3.335-10.688 1.43-15.36 3.653l-6.332-7.998c5.45-3.334 10.888-8.017 17.668-6.674 1.67 3.01 1.787 7.434 5.006 9.005 11.46-.223 19.58-8.89 28.365-15.68-6.123-9.11-11.107-21.69-5.668-32.707 4.358-11.04 15.713-20.34 16.228-32.546.116-2.778-.317-5.7-1.532-8.847-6.004-15.465-8.123-36.366 3.337-50.054-6.23 1.674-9.905 9.44-12.022 15.337-6.89 15.1 1.824 29.09 2.125 43.563.04 2.603-.17 5.212-.8 7.84-5.898 11.902-15.454 22.345-17.006 36.04-6.788 4.33-12.36 11.902-22.033 9.347-.34 2.556.44 6.452 1.326 9.347-7.67-.322-12.9 5.33-19.358 8-3.44-1.104-4.335-5.55-5.667-8.663 7.56-2.553 13.012-10.13 21.69-10.01 1.006-2.795-.564-5.356-1.007-8.023-10.796-4.792-27.91 23.688-29.348-1.004 10.788-.668 17.682-10.682 28.366-11.68l.32-7.998c-12.125-1.225-19.925 11.24-32.045 10.01L5.9 179.82c14.02.876 22.373-11.688 35.725-12.364 1.774-2.333 1.988-5.782 2.33-9.005-14.574-1.9-24.575 14.252-40.043 9.347l-.822-10.512h.02l-.205-2.515c13.793 5.352 25.912-4.555 37.712-9.67 3-.898 7.68.66 9.027-2.675-.117-2.56 4.55-5.55.665-7.337-17.25-2.34-28.71 18.466-46.4 9.005l-1.327-2.675c3.68-50.275 32.034-98.88 79.085-122.8 19.056-10.9 42.73-16.44 66.605-16.638 28.813-.24 57.927 7.32 79.585 22.65 21.032 12.9 41.15 34.162 52.068 55.745 10.442 18.9 15.248 40.13 16.683 62.72-18.248 13.788-30.5-13-49.072-6.997 1 2.898 1.555 5.896 3.68 8.343 16.47-.116 27.8 17.128 45.05 10.332l.015 2.513zM86.667 95.37c-11.57-7.567-26.24-.442-37.025 3.68-1-10.128-5.114-19.355-13.7-26.03-.832-.414-1.982-1.285-3.018-1.35-.62-.04-1.2.21-1.668 1.004 3.887 23.913-11.658 40.6-22.674 58.74 3.668 2.998 9.56 2.55 14 1.67 11.678-4.67 22.802-12.798 36.707-10.012 4.112-7.008 11.02-13.796 16.686-19.358 3.46-2.995 8.216-4.897 10.672-8.343zm35.382 15.018c-.222 1.44.11 4.007 2.33 3.015 3.454-4.783 9.57-1 13.35-.662v-1.346c-2.074-3.257-6.34-4.893-10.674-4.73-1 .035-2.016.18-2.994.408-1.45.322-2.46 1.65-2.012 3.315zm54.396-14.33c-3.106-6.9-10.226-9.69-16.687-11.36-3.167-.4-6.454-.654-9.714-.685-.61-.006-1.22-.014-1.83 0-9.12.184-17.832 2.525-23.155 10.03-.764 2.12-4.123 5.095-1.004 6.994 7.01-.448 15.007-1.327 19.68 4.688 0 5.345 3.45 12.456-2.33 15.015-4.79-4.436-10.465 1.888-15.678-1.672-2.45-1.448-4.002.242-5.006 2.355-1.45 13.79 5.772 29.01 18.674 36.684 5.23 1.886 12.258 3.68 17.715 1.004 13.126-6.112 18.563-20.12 21.007-33.026-.328-2.456-.21-7.242-3.657-7.358-3.89 2.46-9.566 1.007-13.7 0-2.438.787-2.55 4.354-5.325 5.03l-1.69-1.35c-1.448-6.11-2.34-14.79 3.338-19.016 6.346-2.56 13.8-3.677 20.362-1.67 1.225-2.112-.666-3.775-1.008-5.667zm-6.697 10.97l-1.304.047c-2.33 1.555-9.124.437-6.672 5.668 4.23-3.346 10.126-1 14.353.662 1.563-.776 1.224-2.334 1.327-3.677-1.357-2.525-4.6-2.762-7.704-2.7zm48.434-47.034c-8.234-.437-15.13 4.237-22.695 6.352-.66-6.438 4.232-13.237 5.348-19.7-12.233.787-21.922 8.15-32.042 14.032l-7.017-17.027 13.35-12.685.342-1.67-18.03-1.004c-3.106-5.442-4.33-11.997-8-17.003-3.004 5.673-5.022 11.677-8.023 17.345l-18 1.007v1.326l13.67 12.342c-1.67 6.344-3.224 13.237-7.336 18.032-8.01-4.797-15.904-10.018-24.685-13.35-2.113-.682-5.125-1.79-7.016-.342 2.777 6.12 6.666 12.703 6.012 19.383-3.673-.676-6.56-3.03-10.01-4.02-4.127-1.126-9.024-3.326-13.028-1.988 6.676 9.34 12.125 19.113 14 30.352 22.147-10.69 47.975-16.568 74.785-12 12.567 2 24.123 7.12 35.36 11.336.44-11.785 7.892-21.255 13.02-30.717zm38.032 64.084c11.338 3 22.712 15.354 34.718 7.34-10.456-17.35-26.02-33.374-21.69-56.064.453-1.55-.548-3.117-1.988-3.337-6.783 2.772-12.036 9.455-14.72 16.024-1.104 3.885-1.758 8.015-3.313 11.677-8.126-4.23-16.797-8.326-26.697-7.336-3.57.445-8.688.68-9.347 4.344 11.235 6.004 20.474 16.024 27.36 26.694 4.794-.782 10.673-.114 15.68.66zm-118.806 15.68l.32 2.01c4.347 2.896 5.684 7.804 11.702 7.358 5.337.317 9.34-4.683 12-8.685-7.222-.997-16 .546-24.022-.684zm6-9.005c.217.89-.55 2.226.662 2.676 3.56-.773 10.01 1.894 11.997-2.333-1.388-1.555-3.654-2.26-6.032-2.26s-4.844.693-6.627 1.918z"/>
    <path fill="#fff" d="M137.416 126.89h24.392v10.02h-24.392v-10.02z" opacity="1"/>
    <path fill="#007042" d="M141.922 132.25c3.152.746 3.932 1.864 6.423 2.176 2.648-.047 2.266-.585 6.885-2.18.303-.107.72-.776.203-1.3-2.868-2.847-4.85-.813-6.648-.76-2.385.026-4.622-2.042-6.952.646-.397.546-.604 1.082.1 1.405zm115.236 164.422V282.4h-5.098v-2.906h13.652v2.906h-5.086v14.273h-3.468zm10.758 0v-17.18h5.2l3.117 11.72 3.082-11.72h5.203v17.18h-3.223V283.15l-3.4 13.523h-3.34l-3.398-13.523v13.523h-3.222z"/>
</svg>
